{
  "accessors": [
    {
      "bufferView": 2,
      "componentType": 5126,
      "count": 16114,
      "max": [
        7.899750232696533,
        2.684540033340454,
        25.091888427734375
      ],
      "min": [
        -8.216663360595703,
        -12.776910781860352,
        7.999770164489746
      ],
      "type": "VEC3"
    },
    {
      "bufferView": 2,
      "byteOffset": 193368,
      "componentType": 5126,
      "count": 16114,
      "max": [
        0.9999942779541016,
        1.0,
        1.0
      ],
      "min": [
        -0.9999866485595703,
        -1.0,
        -0.9999999403953552
      ],
      "type": "VEC3"
    },
    {
      "bufferView": 1,
      "componentType": 5126,
      "count": 16114,
      "max": [
        2.7240819931030273,
        3.4100849628448486
      ],
      "min": [
        -0.9441660046577454,
        0.0
      ],
      "type": "VEC2"
    },
    {
      "bufferView": 0,
      "componentType": 5125,
      "count": 66516,
      "type": "SCALAR"
    }
  ],
  "asset": {
    "extras": {
      "author": "Nik Ladoukakis (https://sketchfab.com/nikladoukakis)",
      "license": "CC-BY-4.0 (http://creativecommons.org/licenses/by/4.0/)",
      "source": "https://sketchfab.com/3d-models/parachute-f5c4359a43a74095986199e10c973c2f",
      "title": "Parachute"
    },
    "generator": "Sketchfab-12.66.0",
    "version": "2.0"
  },
  "bufferViews": [
    {
      "buffer": 0,
      "byteLength": 266064,
      "name": "floatBufferViews",
      "target": 34963
    },
    {
      "buffer": 0,
      "byteLength": 128912,
      "byteOffset": 266064,
      "byteStride": 8,
      "name": "floatBufferViews",
      "target": 34962
    },
    {
      "buffer": 0,
      "byteLength": 386736,
      "byteOffset": 394976,
      "byteStride": 12,
      "name": "floatBufferViews",
      "target": 34962
    }
  ],
  "buffers": [
    {
      "byteLength": 781712,
      "uri": "scene.bin"
    }
  ],
  "materials": [
    {
      "doubleSided": true,
      "name": "material_0",
      "pbrMetallicRoughness": {
        "baseColorFactor": [
          0.30382297006747166,
          0.2721210026801125,
          0.2721210026801125,
          1.0
        ],
        "metallicFactor": 0.0,
        "roughnessFactor": 0.3117988800321033
      }
    }
  ],
  "meshes": [
    {
      "name": "Object_0",
      "primitives": [
        {
          "attributes": {
            "NORMAL": 1,
            "POSITION": 0,
            "TEXCOORD_0": 2
          },
          "indices": 3,
          "material": 0,
          "mode": 4
        }
      ]
    }
  ],
  "nodes": [
    {
      "children": [
        1
      ],
      "matrix": [
        1.0,
        0.0,
        0.0,
        0.0,
        0.0,
        2.220446049250313e-16,
        -1.0,
        0.0,
        0.0,
        1.0,
        2.220446049250313e-16,
        0.0,
        0.0,
        0.0,
        0.0,
        1.0
      ],
      "name": "Sketchfab_model"
    },
    {
      "children": [
        2
      ],
      "name": "parashot.obj.cleaner.materialmerger.gles"
    },
    {
      "mesh": 0,
      "name": "Object_2"
    }
  ],
  "scene": 0,
  "scenes": [
    {
      "name": "Sketchfab_Scene",
      "nodes": [
        0
      ]
    }
  ]
}
